<?xml version="1.0" encoding="UTF-8"?>
<svg width="20px" height="19px" viewBox="0 0 20 19" version="1.1" xmlns="http://www.w3.org/2000/svg" xmlns:xlink="http://www.w3.org/1999/xlink">
    <!-- Generator: Sketch 46.2 (44496) - http://www.bohemiancoding.com/sketch -->
    <title>Leaves</title>
    <desc>Created with Sketch.</desc>
    <defs></defs>
    <g id="Page-1" stroke="none" stroke-width="1" fill="none" fill-rule="evenodd">
        <g id="Variscite" transform="translate(-52.000000, -781.000000)" fill-rule="nonzero" fill="#9B9B9B">
            <g id="main-navigation-left-sidebar" transform="translate(29.000000, 110.000000)">
                <g id="Group-6" transform="translate(20.000000, 38.000000)">
                    <path d="M11.2331979,650.952962 C11.2594156,650.837853 11.295052,650.645842 11.3296244,650.390589 C11.4789358,649.288201 11.4647909,648.106067 11.1696862,646.970399 C10.9488984,646.120729 10.5801531,645.358815 10.0395084,644.716598 C9.41116911,643.970211 8.57453272,643.355103 7.58337683,642.849427 C6.83768941,642.468986 6.04629883,642.171263 5.25576774,641.944476 C4.77977908,641.807925 4.40457764,641.724227 4.17807798,641.684539 L3.27040615,641.525493 L3.13531566,642.437038 C3.11736494,642.558164 3.09203254,642.767023 3.06715709,643.046595 C2.96905788,644.149121 2.96843245,645.322105 3.1324751,646.439728 C3.23252713,647.121383 3.39106886,647.747749 3.6185291,648.307708 C4.64428682,650.832906 7.45174444,652.068462 10.482977,651.64245 L11.0957727,651.556327 L11.2331979,650.952962 L11.2331979,650.952962 Z M9.48292702,650.554313 L10.2331479,649.864824 C7.95072972,650.185597 5.96365616,649.31109 5.28164933,647.632134 C5.11290589,647.216724 4.98899674,646.727183 4.9085413,646.17904 C4.76794047,645.221126 4.76849559,644.180028 4.85518913,643.205689 C4.87680879,642.962708 4.89797149,642.788227 4.91101751,642.700197 L3.86825519,643.452696 C3.90434123,643.459019 3.98323682,643.474605 4.09865042,643.500351 C4.29721142,643.544645 4.52003385,643.600913 4.76075993,643.669972 C5.44787471,643.867091 6.13413,644.125262 6.76757873,644.44844 C7.56094059,644.853204 8.20930878,645.329894 8.66624091,645.872671 C9.02304738,646.296512 9.27530608,646.817738 9.43228907,647.421864 C9.65991481,648.297848 9.67141459,649.258924 9.55077085,650.149655 C9.52374188,650.349213 9.49777688,650.489114 9.48292702,650.554313 L9.48292702,650.554313 Z M12.1080248,650.389667 C12.0861786,650.33225 12.0433009,650.209896 11.9862877,650.030075 C11.8889045,649.722927 11.790985,649.3729 11.6993622,648.987572 C11.2689748,647.177541 11.1325644,645.309374 11.4594881,643.594365 C11.6446258,642.623152 11.9747131,641.740225 12.4640761,640.959874 C13.2818559,639.65582 14.5405256,638.46896 16.1244324,637.413678 C17.1946518,636.700642 18.346837,636.090852 19.4993426,635.58616 C19.9025598,635.409588 20.2762463,635.259075 20.6102744,635.134593 C20.8072134,635.061201 20.9446012,635.013586 21.0123548,634.991652 L19.8750129,634.3916 C19.8809648,634.411784 19.8935409,634.455928 19.9117987,634.522499 C19.9430853,634.636575 19.9781813,634.770046 20.0161456,634.921375 C20.1253919,635.356842 20.2349217,635.845566 20.3372359,636.375136 C20.668059,638.087449 20.8468155,639.810043 20.7947508,641.401013 C20.7650088,642.309856 20.6594235,643.145202 20.4719791,643.891041 C19.5635841,647.505531 15.8381133,649.811299 11.2691468,649.811299 L12.1080248,650.389667 Z M10.4302687,651.028027 C10.3064445,650.702589 10.1287462,650.142126 9.95295733,649.40283 C9.46890386,647.367101 9.31491098,645.25814 9.69614445,643.258228 C9.92135773,642.076782 10.3296391,640.9847 10.9432788,640.006173 C11.912411,638.460768 13.3502565,637.104956 15.1291208,635.919783 C16.2941478,635.143581 17.5368693,634.485875 18.7792704,633.941817 C19.2142706,633.751326 19.6189288,633.588339 19.9834151,633.452506 C20.2055848,633.369711 20.3675604,633.313575 20.4594673,633.283821 L21.3361708,633 L21.5968092,633.883873 C21.630326,633.997535 21.6863339,634.201748 21.7572866,634.484572 C21.8742479,634.950791 21.9909257,635.47141 22.0997385,636.034616 C22.4539537,637.868005 22.6458956,639.71766 22.5888863,641.459727 C22.5551924,642.48933 22.4337929,643.449791 22.2129357,644.328579 C21.0819093,648.828916 16.5942867,651.606395 11.2691468,651.606395 L10.6503288,651.606395 L10.4302687,651.028027 Z M12.6964803,650.518585 C12.7063895,650.483443 12.7285718,650.40904 12.7636616,650.297732 C12.8233742,650.108321 12.8972685,649.8867 12.9859768,649.635229 C13.2409754,648.912357 13.5628491,648.098227 13.9566166,647.211706 C15.083746,644.674108 16.5588875,642.071482 18.4213831,639.554175 C18.6425079,639.255308 18.5794852,638.833771 18.280618,638.612647 C17.9817508,638.391522 17.560214,638.454544 17.3390892,638.753412 C15.4145887,641.354522 13.8913616,644.041987 12.7262076,646.665193 C12.3176759,647.584954 11.9828181,648.431925 11.7163351,649.187353 C11.6225247,649.453288 11.5438437,649.689264 11.4796345,649.89294 C11.4403713,650.017485 11.4142746,650.105019 11.4006893,650.153197 C11.2997901,650.51102 11.5080679,650.882887 11.8658907,650.983787 C12.2237135,651.084686 12.5955811,650.876408 12.6964803,650.518585 Z" id="Leaves"></path>
                </g>
            </g>
        </g>
    </g>
</svg>